<svg width="1024" height="603" viewBox="0 0 1024 603" fill="none" xmlns="http://www.w3.org/2000/svg">
<path d="M938.716 540.15C938.904 534.509 939 528.842 939 523.15C939 267.443 747.826 60.1504 512 60.1504C276.174 60.1504 85 267.443 85 523.15C85 528.842 85.0964 534.509 85.2842 540.15H938.716Z" fill="#FEF08E"/>
<path d="M893.73 540.15C893.908 534.65 894 529.124 894 523.575C894 274.26 712.898 72.1504 489.499 72.1504C266.1 72.1507 84.9992 274.26 84.999 523.575C84.999 529.124 85.0897 534.65 85.2676 540.15H893.73ZM931.893 0H931.892V540.15H931.893V0Z" fill="#FEE772"/>
<path d="M442.5 249.15V339.15L552 261.15L671 349.15L717 327.65L840.5 367.65V424.15L950 458.65V559.11C993.132 567.91 1029.97 578.025 1059 589.14V602.372C894.757 577.425 690.89 562.65 470.038 562.65C292.451 562.65 125.846 572.203 -18.0068 588.916C9.47669 578.443 43.9047 568.861 84 560.437V460.15L146.5 437.65V375.65L216.5 349.65V270.15L331.5 211.15L442.5 249.15ZM-18.0068 588.916C-20.7405 589.958 -23.405 591.009 -26 592.068V589.855C-23.3435 589.54 -20.6791 589.226 -18.0068 588.916Z" fill="#05131D"/>
<path d="M750.5 422.65L689 456.15L726 485.15L727.5 487.15V489.15L726 492.15H707.5V531.15H750.5V444.15L754 441.65L877 480.15L879.5 480.65L882 480.15L884.5 478.65L886 477.65L888 476.15V473.15V470.65V467.65L885 464.65L750.5 422.65Z" fill="white"/>
<path d="M657.5 427.15V379.65L715.5 350.65V416.15L672.5 440.65L657.5 427.15Z" fill="white"/>
<path d="M502.5 393.15L487.5 379.15L535 352.15L622.5 405.15V425.65L535 372.65L502.5 393.15Z" fill="white"/>
<path d="M214.5 376.65L171 392.65V540.15L214.5 534.65V376.65Z" fill="white"/>
<path d="M329 526.15L244.5 532.15V284.65L329 242.15V526.15Z" fill="white"/>
<rect x="275" y="301.15" width="22" height="28" fill="#05131D"/>
<rect x="275" y="359.15" width="22" height="28" fill="#05131D"/>
<rect x="275" y="417.15" width="22" height="28" fill="#05131D"/>
<rect x="362" y="283.15" width="22" height="27" fill="white"/>
<rect x="362" y="340.15" width="22" height="27" fill="white"/>
<path d="M380.5 523.65V480.65H354L461.5 382.65L569 480.65H541.5V522.15H490V470.65H431.5V522.15L380.5 523.65Z" fill="white"/>
<rect x="585" y="490.15" width="80" height="35" fill="white"/>
<path d="M812 536.65V487.15L852 492.15V540.65L812 536.65Z" fill="white"/>
</svg>
